<svg width="33" height="32" viewBox="0 0 33 32" fill="none" xmlns="http://www.w3.org/2000/svg">
<path d="M12.293 19.5C13.1214 19.5 13.793 18.8284 13.793 18C13.793 17.1716 13.1214 16.5 12.293 16.5C11.4645 16.5 10.793 17.1716 10.793 18C10.793 18.8284 11.4645 19.5 12.293 19.5Z" fill="#858584"/>
<path d="M20.293 19.5C21.1214 19.5 21.793 18.8284 21.793 18C21.793 17.1716 21.1214 16.5 20.293 16.5C19.4645 16.5 18.793 17.1716 18.793 18C18.793 18.8284 19.4645 19.5 20.293 19.5Z" fill="#858584"/>
<path fill-rule="evenodd" clip-rule="evenodd" d="M16.2856 9.99959C14.1178 9.98356 11.9608 10.3055 9.89211 10.9539C9.3651 11.119 8.80398 10.8257 8.63881 10.2987C8.47364 9.77168 8.76697 9.21056 9.29397 9.04539C11.5586 8.33563 13.9199 7.98281 16.293 7.99959C18.6662 7.98281 21.0275 8.33563 23.2921 9.04539C23.8191 9.21056 24.1124 9.77168 23.9473 10.2987C23.7821 10.8257 23.221 11.119 22.694 10.9539C20.6253 10.3055 18.4683 9.98356 16.3004 9.99959H16.2856Z" fill="#858584"/>
<path fill-rule="evenodd" clip-rule="evenodd" d="M8.63881 21.701C8.80398 21.1739 9.3651 20.8806 9.89211 21.0458C11.9608 21.6941 14.1178 22.0161 16.2856 22.0001H16.3004C18.4683 22.0161 20.6253 21.6941 22.694 21.0458C23.221 20.8806 23.7821 21.1739 23.9473 21.701C24.1124 22.228 23.8191 22.7891 23.2921 22.9543C21.0275 23.664 18.6662 24.0168 16.293 24C13.9199 24.0168 11.5586 23.664 9.29397 22.9543C8.76697 22.7891 8.47364 22.228 8.63881 21.701Z" fill="#858584"/>
<path fill-rule="evenodd" clip-rule="evenodd" d="M20.5129 4.81121C20.9434 4.56852 21.448 4.49267 21.9308 4.59812C23.2483 4.88366 24.5383 5.28424 25.7858 5.79524C26.0666 5.90352 26.3188 6.07496 26.5229 6.29638C26.7291 6.52018 26.8805 6.78885 26.965 7.08115L31.2008 21.2255C31.3113 21.594 31.3138 21.9865 31.2082 22.3563C31.1025 22.7262 30.893 23.0581 30.6045 23.3126L30.5994 23.3171C28.5319 25.1161 25.7305 26.4777 22.5486 27.2577C22.1066 27.3703 21.6392 27.3265 21.2257 27.1336C20.8139 26.9414 20.4811 26.6132 20.2833 26.2044L18.775 23.2129C18.5264 22.7197 18.7246 22.1184 19.2178 21.8698C19.7109 21.6211 20.3122 21.8194 20.5609 22.3125L22.0734 25.3125L22.0745 25.3147C25.0124 24.5943 27.5065 23.3571 29.2865 21.8083L29.9429 22.5627L29.2814 21.8128C29.2832 21.8113 29.2845 21.8092 29.2851 21.8069C29.2858 21.8046 29.2858 21.8022 29.2851 21.7999L25.049 7.65465C25.0455 7.65325 25.0419 7.65182 25.0384 7.65037C23.8955 7.18149 22.7135 6.81412 21.5062 6.55253L21.504 6.55205C21.501 6.55139 21.4979 6.55186 21.4952 6.55337C21.4928 6.55473 21.4909 6.55684 21.4898 6.55937L20.5049 9.53905C20.3316 10.0634 19.766 10.348 19.2416 10.1747C18.7172 10.0013 18.4326 9.43574 18.606 8.91136L19.5963 5.91516C19.7558 5.44707 20.0821 5.0541 20.5129 4.81121Z" fill="#858584"/>
<path fill-rule="evenodd" clip-rule="evenodd" d="M11.0907 6.55337C11.088 6.55186 11.0849 6.55139 11.0819 6.55205L11.0797 6.55252C9.87236 6.81412 8.6904 7.18148 7.5475 7.65037C7.54397 7.65182 7.54043 7.65324 7.53689 7.65465L3.3009 21.7996C3.30022 21.8019 3.30012 21.8046 3.30077 21.8069C3.30136 21.809 3.30248 21.8108 3.304 21.8123C5.08369 23.3593 7.57608 24.5949 10.5114 25.3147L10.5125 25.3125L12.025 22.3125C12.2736 21.8194 12.875 21.6211 13.3681 21.8698C13.8613 22.1184 14.0595 22.7197 13.8109 23.2129L12.3026 26.2045C12.1047 26.6132 11.772 26.9414 11.3602 27.1336C10.9467 27.3265 10.4793 27.3703 10.0373 27.2577C6.85535 26.4777 4.05399 25.1161 1.98652 23.3171L1.98134 23.3126C1.69287 23.0581 1.48341 22.7262 1.37773 22.3563C1.27207 21.9865 1.27459 21.5942 1.38497 21.2258C1.38494 21.2259 1.385 21.2257 1.38497 21.2258L5.62087 7.08117C5.70539 6.78887 5.85674 6.52019 6.06299 6.29638C6.26705 6.07496 6.51927 5.90352 6.80008 5.79524C8.04794 5.28409 9.33825 4.88344 10.6562 4.59788C11.1386 4.49279 11.6428 4.5687 12.073 4.81121C12.5037 5.05409 12.83 5.44708 12.9895 5.91518L12.9925 5.92385L13.9799 8.91136C14.1532 9.43574 13.8687 10.0013 13.3443 10.1747C12.8199 10.348 12.2543 10.0634 12.081 9.53905L11.096 6.55937C11.095 6.55684 11.0931 6.55473 11.0907 6.55337Z" fill="#858584"/>
<path d="M12.293 19.5C13.1214 19.5 13.793 18.8284 13.793 18C13.793 17.1716 13.1214 16.5 12.293 16.5C11.4645 16.5 10.793 17.1716 10.793 18C10.793 18.8284 11.4645 19.5 12.293 19.5Z" fill="#858584"/>
<path d="M20.293 19.5C21.1214 19.5 21.793 18.8284 21.793 18C21.793 17.1716 21.1214 16.5 20.293 16.5C19.4645 16.5 18.793 17.1716 18.793 18C18.793 18.8284 19.4645 19.5 20.293 19.5Z" fill="#858584"/>
<path fill-rule="evenodd" clip-rule="evenodd" d="M16.2856 9.99959C14.1178 9.98356 11.9608 10.3055 9.89211 10.9539C9.3651 11.119 8.80398 10.8257 8.63881 10.2987C8.47364 9.77168 8.76697 9.21056 9.29397 9.04539C11.5586 8.33563 13.9199 7.98281 16.293 7.99959C18.6662 7.98281 21.0275 8.33563 23.2921 9.04539C23.8191 9.21056 24.1124 9.77168 23.9473 10.2987C23.7821 10.8257 23.221 11.119 22.694 10.9539C20.6253 10.3055 18.4683 9.98356 16.3004 9.99959H16.2856Z" fill="#858584"/>
<path fill-rule="evenodd" clip-rule="evenodd" d="M8.63881 21.701C8.80398 21.1739 9.3651 20.8806 9.89211 21.0458C11.9608 21.6941 14.1178 22.0161 16.2856 22.0001H16.3004C18.4683 22.0161 20.6253 21.6941 22.694 21.0458C23.221 20.8806 23.7821 21.1739 23.9473 21.701C24.1124 22.228 23.8191 22.7891 23.2921 22.9543C21.0275 23.664 18.6662 24.0168 16.293 24C13.9199 24.0168 11.5586 23.664 9.29397 22.9543C8.76697 22.7891 8.47364 22.228 8.63881 21.701Z" fill="#858584"/>
<path fill-rule="evenodd" clip-rule="evenodd" d="M20.5129 4.81121C20.9434 4.56852 21.448 4.49267 21.9308 4.59812C23.2483 4.88366 24.5383 5.28424 25.7858 5.79524C26.0666 5.90352 26.3188 6.07496 26.5229 6.29638C26.7291 6.52018 26.8805 6.78885 26.965 7.08115L31.2008 21.2255C31.3113 21.594 31.3138 21.9865 31.2082 22.3563C31.1025 22.7262 30.893 23.0581 30.6045 23.3126L30.5994 23.3171C28.5319 25.1161 25.7305 26.4777 22.5486 27.2577C22.1066 27.3703 21.6392 27.3265 21.2257 27.1336C20.8139 26.9414 20.4811 26.6132 20.2833 26.2044L18.775 23.2129C18.5264 22.7197 18.7246 22.1184 19.2178 21.8698C19.7109 21.6211 20.3122 21.8194 20.5609 22.3125L22.0734 25.3125L22.0745 25.3147C25.0124 24.5943 27.5065 23.3571 29.2865 21.8083L29.9429 22.5627L29.2814 21.8128C29.2832 21.8113 29.2845 21.8092 29.2851 21.8069C29.2858 21.8046 29.2858 21.8022 29.2851 21.7999L25.049 7.65465C25.0455 7.65325 25.0419 7.65182 25.0384 7.65037C23.8955 7.18149 22.7135 6.81412 21.5062 6.55253L21.504 6.55205C21.501 6.55139 21.4979 6.55186 21.4952 6.55337C21.4928 6.55473 21.4909 6.55684 21.4898 6.55937L20.5049 9.53905C20.3316 10.0634 19.766 10.348 19.2416 10.1747C18.7172 10.0013 18.4326 9.43574 18.606 8.91136L19.5963 5.91516C19.7558 5.44707 20.0821 5.0541 20.5129 4.81121Z" fill="#858584"/>
<path fill-rule="evenodd" clip-rule="evenodd" d="M11.0907 6.55337C11.088 6.55186 11.0849 6.55139 11.0819 6.55205L11.0797 6.55252C9.87236 6.81412 8.6904 7.18148 7.5475 7.65037C7.54397 7.65182 7.54043 7.65324 7.53689 7.65465L3.3009 21.7996C3.30022 21.8019 3.30012 21.8046 3.30077 21.8069C3.30136 21.809 3.30248 21.8108 3.304 21.8123C5.08369 23.3593 7.57608 24.5949 10.5114 25.3147L10.5125 25.3125L12.025 22.3125C12.2736 21.8194 12.875 21.6211 13.3681 21.8698C13.8613 22.1184 14.0595 22.7197 13.8109 23.2129L12.3026 26.2045C12.1047 26.6132 11.772 26.9414 11.3602 27.1336C10.9467 27.3265 10.4793 27.3703 10.0373 27.2577C6.85535 26.4777 4.05399 25.1161 1.98652 23.3171L1.98134 23.3126C1.69287 23.0581 1.48341 22.7262 1.37773 22.3563C1.27207 21.9865 1.27459 21.5942 1.38497 21.2258C1.38494 21.2259 1.385 21.2257 1.38497 21.2258L5.62087 7.08117C5.70539 6.78887 5.85674 6.52019 6.06299 6.29638C6.26705 6.07496 6.51927 5.90352 6.80008 5.79524C8.04794 5.28409 9.33825 4.88344 10.6562 4.59788C11.1386 4.49279 11.6428 4.5687 12.073 4.81121C12.5037 5.05409 12.83 5.44708 12.9895 5.91518L12.9925 5.92385L13.9799 8.91136C14.1532 9.43574 13.8687 10.0013 13.3443 10.1747C12.8199 10.348 12.2543 10.0634 12.081 9.53905L11.096 6.55937C11.095 6.55684 11.0931 6.55473 11.0907 6.55337Z" fill="#858584"/>
</svg>
