<svg width="33" height="32" viewBox="0 0 33 32" fill="none" xmlns="http://www.w3.org/2000/svg">
<path d="M16.2929 11.0005C16.2929 8.25045 18.6054 5.96295 21.3554 6.00045C22.3185 6.01157 23.2578 6.3006 24.0606 6.8328C24.8633 7.365 25.4952 8.11771 25.8804 9.00045H30.2929L26.2554 13.038C25.9949 17.0937 24.1995 20.8979 21.2344 23.6773C18.2693 26.4566 14.357 28.0025 10.2929 28.0005C6.29291 28.0005 5.29291 26.5005 5.29291 26.5005C5.29291 26.5005 9.29291 25.0005 11.2929 22.0005C11.2929 22.0005 3.29291 18.0005 5.29291 7.00045C5.29291 7.00045 10.2929 12.0005 16.2929 13.0005V11.0005Z" stroke="#858584" stroke-width="2" stroke-linecap="round" stroke-linejoin="round"/>
</svg>
